<?xml version="1.0" encoding="UTF-8"?>
<svg version="1.1" xmlns="http://www.w3.org/2000/svg" width="1024" height="1024">
<path d="M0 0 C337.92 0 675.84 0 1024 0 C1024 337.92 1024 675.84 1024 1024 C686.08 1024 348.16 1024 0 1024 C0 686.08 0 348.16 0 0 Z " fill="#FEFEFE" transform="translate(0,0)"/>
<path d="M0 0 C10.18230871 9.04555964 19.36762691 18.85860991 27.45507812 29.81152344 C28.76357346 31.57516912 30.0992617 33.31530888 31.44042969 35.05419922 C58.22079251 70.15114803 76.71886491 113.63675569 76.94824219 158.22998047 C76.95394226 159.12282745 76.95964233 160.01567444 76.96551514 160.93557739 C76.97489567 162.81625206 76.98147118 164.69694266 76.98535156 166.57763672 C76.99497536 169.3839375 77.02603222 172.18947829 77.05761719 174.99560547 C77.15720644 191.72273775 75.31701828 207.84508005 70.55761719 223.92529297 C70.25500977 224.96999756 69.95240234 226.01470215 69.640625 227.09106445 C57.05347094 269.68705024 35.12324933 307.70218118 10.74511719 344.55029297 C10.363172 345.12815552 9.98122681 345.70601807 9.58770752 346.3013916 C-12.17686144 379.2232751 -12.17686144 379.2232751 -23.25488281 394.55029297 C-24.29296303 395.99667808 -25.33070938 397.44330286 -26.36816406 398.89013672 C-39.37516924 416.99723645 -52.69028185 434.8574991 -66.25488281 452.55029297 C-66.7340918 453.17629395 -67.21330078 453.80229492 -67.70703125 454.44726562 C-70.10587129 457.58064828 -72.51151184 460.70867805 -74.92529297 463.83056641 C-75.89180713 465.08068131 -76.85752145 466.33141474 -77.82275391 467.58251953 C-85.62727914 477.69308062 -93.55050773 487.69117791 -101.64160156 497.57373047 C-103.28010192 499.58119095 -104.90939476 501.59579235 -106.53613281 503.61279297 C-112.25504137 510.69791828 -118.0412777 517.70743829 -124.00146484 524.59130859 C-127.85864637 529.05331063 -131.56664872 533.61415032 -135.21972656 538.24560547 C-139.89857206 543.54410612 -144.48508325 546.53831598 -151.56738281 546.98779297 C-157.86726389 546.80004817 -161.84170678 543.94904763 -166.21582031 539.60107422 C-168.30221831 537.30438709 -170.28882558 534.95075523 -172.25488281 532.55029297 C-172.94195312 531.71369141 -173.62902344 530.87708984 -174.33691406 530.01513672 C-175.82119353 528.19923445 -177.30147332 526.3800576 -178.77832031 524.55810547 C-181.51140838 521.23873983 -184.31535565 517.9879553 -187.12988281 514.73779297 C-191.56256438 509.60528797 -195.81635143 504.36645482 -199.97143555 499.00756836 C-203.61890785 494.31740531 -207.39172506 489.74177808 -211.19238281 485.17529297 C-216.27288601 479.05672611 -221.13223517 472.81671231 -225.8605957 466.4230957 C-229.18320954 461.94134084 -232.61475022 457.56972466 -236.12988281 453.23779297 C-242.51028819 445.3491016 -248.49431694 437.1850665 -254.47265625 428.98974609 C-256.80822002 425.79290319 -259.15687196 422.60582736 -261.50732422 419.41992188 C-262.68025504 417.82946831 -263.85178692 416.23798218 -265.02197266 414.64550781 C-267.81671492 410.84363729 -270.62383986 407.05330136 -273.47363281 403.29248047 C-283.69228556 389.73618483 -293.00983144 375.5964925 -302.36070251 361.43606567 C-305.58835448 356.54963247 -308.84672441 351.68471599 -312.1184082 346.82763672 C-323.82887596 329.40749557 -334.65652123 311.53029413 -344.81054688 293.16015625 C-345.70809671 291.53831587 -346.61024929 289.91900294 -347.51953125 288.30371094 C-377.76393364 234.57109495 -389.56225819 172.28201597 -373.03222656 112.23779297 C-362.52810039 75.92202008 -344.00808504 43.67364811 -317.87597656 16.34716797 C-315.98690536 14.33140794 -314.25954211 12.33951147 -312.54003906 10.19091797 C-311.7859375 9.31951172 -311.03183594 8.44810547 -310.25488281 7.55029297 C-309.59488281 7.55029297 -308.93488281 7.55029297 -308.25488281 7.55029297 C-308.25488281 6.89029297 -308.25488281 6.23029297 -308.25488281 5.55029297 C-306.78173828 4.04345703 -306.78173828 4.04345703 -304.74707031 2.31591797 C-303.64637207 1.38102539 -303.64637207 1.38102539 -302.5234375 0.42724609 C-290.75105639 -9.31296763 -278.52679026 -17.87795015 -265.25488281 -25.44970703 C-264.15418457 -26.08537598 -264.15418457 -26.08537598 -263.03125 -26.73388672 C-236.60303576 -41.84734023 -207.42813839 -50.91724412 -177.25488281 -54.44970703 C-176.4944165 -54.54469482 -175.7339502 -54.63968262 -174.95043945 -54.73754883 C-113.01869343 -61.82897013 -47.19591016 -40.37996212 0 0 Z " fill="#2493FD" transform="translate(663.2548828125,237.44970703125)"/>
<path d="M0 0 C1.28970703 -0.01160156 2.57941406 -0.02320313 3.90820312 -0.03515625 C34.27660757 0.05608583 60.75459521 12.84561559 82.5625 33.375 C83.23925781 33.97570312 83.91601562 34.57640625 84.61328125 35.1953125 C101.99096707 51.28447251 112.70738342 77.53973451 114.50390625 100.89453125 C114.57746144 104.00836764 114.39807623 107.07805079 114.21875 110.1875 C112.67876032 123.28084771 112.67876032 123.28084771 116.9921875 134.9453125 C119.65774969 137.1402109 122.64268916 138.69513054 125.70166016 140.27294922 C129.08744218 142.27812109 131.71321277 145.066053 134.4375 147.875 C134.9845459 148.43396973 135.5315918 148.99293945 136.09521484 149.56884766 C155.09851644 169.35111604 162.34569829 195.28126358 161.80859375 222.21875 C160.90724646 246.64929734 148.48745239 270.70101819 130.85546875 287.41796875 C106.83309232 307.92088288 79.79209256 314.32876607 48.5625 312.375 C32.55532934 310.35830623 17.85745569 302.85656654 4.89453125 293.52734375 C2.63307482 292.18043349 2.63307482 292.18043349 0.13671875 292.4609375 C-3.06180622 293.59668081 -5.59922011 295.19987883 -8.4375 297.0625 C-30.41411402 311.021679 -57.67160955 316.85992038 -83.43505859 311.1965332 C-99.1468952 307.07380739 -113.1056804 299.86840763 -125.4375 289.375 C-126.11425781 288.84390625 -126.79101562 288.3128125 -127.48828125 287.765625 C-144.67521157 273.85075556 -155.35632677 250.94133839 -158.4375 229.375 C-160.61731976 200.75253126 -154.85096412 176.13877795 -136.3515625 153.86328125 C-123.70773146 139.37833095 -123.70773146 139.37833095 -117.37670898 136.40820312 C-114.6875006 134.9714086 -113.23141056 133.86743607 -111.4375 131.375 C-110.33204547 125.38014092 -110.49548059 119.45117538 -110.625 113.375 C-110.66008256 110.12487413 -110.67251621 106.8753055 -110.66796875 103.625 C-110.66720589 102.43722961 -110.66720589 102.43722961 -110.66642761 101.22546387 C-110.55019322 91.09029709 -108.18147213 81.391936 -104.75 71.875 C-104.49508789 71.16633789 -104.24017578 70.45767578 -103.97753906 69.72753906 C-93.95245234 42.98199708 -72.99772577 22.13740437 -47.3828125 10.125 C-31.94102789 3.15469761 -16.97836373 -0.15227232 0 0 Z " fill="#1FBE8B" transform="translate(510.4375,261.625)"/>
<path d="M0 0 C1.28970703 -0.01160156 2.57941406 -0.02320313 3.90820312 -0.03515625 C34.27660757 0.05608583 60.75459521 12.84561559 82.5625 33.375 C83.23925781 33.97570312 83.91601562 34.57640625 84.61328125 35.1953125 C101.99096707 51.28447251 112.70738342 77.53973451 114.50390625 100.89453125 C114.57746144 104.00836764 114.39807623 107.07805079 114.21875 110.1875 C112.67876032 123.28084771 112.67876032 123.28084771 116.9921875 134.9453125 C119.65774969 137.1402109 122.64268916 138.69513054 125.70166016 140.27294922 C129.08744218 142.27812109 131.71321277 145.066053 134.4375 147.875 C134.9845459 148.43396973 135.5315918 148.99293945 136.09521484 149.56884766 C155.09851644 169.35111604 162.34569829 195.28126358 161.80859375 222.21875 C160.90724646 246.64929734 148.48745239 270.70101819 130.85546875 287.41796875 C106.83309232 307.92088288 79.79209256 314.32876607 48.5625 312.375 C32.55532934 310.35830623 17.85745569 302.85656654 4.89453125 293.52734375 C2.63307482 292.18043349 2.63307482 292.18043349 0.13671875 292.4609375 C-3.06180622 293.59668081 -5.59922011 295.19987883 -8.4375 297.0625 C-30.41411402 311.021679 -57.67160955 316.85992038 -83.43505859 311.1965332 C-99.1468952 307.07380739 -113.1056804 299.86840763 -125.4375 289.375 C-126.11425781 288.84390625 -126.79101562 288.3128125 -127.48828125 287.765625 C-144.67521157 273.85075556 -155.35632677 250.94133839 -158.4375 229.375 C-160.61731976 200.75253126 -154.85096412 176.13877795 -136.3515625 153.86328125 C-123.70773146 139.37833095 -123.70773146 139.37833095 -117.37670898 136.40820312 C-114.6875006 134.9714086 -113.23141056 133.86743607 -111.4375 131.375 C-110.33204547 125.38014092 -110.49548059 119.45117538 -110.625 113.375 C-110.66008256 110.12487413 -110.67251621 106.8753055 -110.66796875 103.625 C-110.66720589 102.43722961 -110.66720589 102.43722961 -110.66642761 101.22546387 C-110.55019322 91.09029709 -108.18147213 81.391936 -104.75 71.875 C-104.49508789 71.16633789 -104.24017578 70.45767578 -103.97753906 69.72753906 C-93.95245234 42.98199708 -72.99772577 22.13740437 -47.3828125 10.125 C-31.94102789 3.15469761 -16.97836373 -0.15227232 0 0 Z M-51.4375 61.375 C-52.14777344 62.08527344 -52.85804688 62.79554688 -53.58984375 63.52734375 C-69.36691831 80.27345168 -72.27646691 99.24432236 -71.63427734 121.31347656 C-71.11056231 129.46159872 -68.52640282 136.8614526 -65.4375 144.375 C-66.05753906 144.38917969 -66.67757812 144.40335937 -67.31640625 144.41796875 C-85.86862978 145.41714236 -102.37370679 154.50321998 -115.06494141 167.81396484 C-129.54740679 184.28512878 -133.46729178 203.33561349 -132.62841797 224.61376953 C-131.35763685 242.99296961 -121.39030455 259.72495194 -107.77734375 271.71875 C-94.11363362 282.18285791 -79.35950839 287.98123131 -62.125 287.8125 C-61.02704102 287.80420166 -59.92908203 287.79590332 -58.79785156 287.78735352 C-39.85906213 287.39384569 -23.95529492 279.68037243 -10.4375 266.375 C-3.08973861 258.17530086 -3.08973861 258.17530086 0.5625 248.375 C1.2225 248.375 1.8825 248.375 2.5625 248.375 C2.81773437 249.25414062 3.07296875 250.13328125 3.3359375 251.0390625 C8.47889433 265.02659477 21.60255838 275.61538188 34.65234375 281.8515625 C50.98313585 288.89460272 70.02159056 290.24209006 87.1171875 284.75390625 C107.33011321 276.66415253 121.83138474 263.26109501 131.01953125 243.37890625 C134.63631526 234.46087157 136.07347607 226.10485523 135.9375 216.5 C135.92589844 215.44425781 135.91429687 214.38851562 135.90234375 213.30078125 C135.50831493 194.50328863 128.78390336 177.9291568 115.5625 164.375 C104.10940075 153.41556882 87.72155513 144.66450131 71.625 144.28125 C70.614375 144.3121875 69.60375 144.343125 68.5625 144.375 C69.08650391 142.76431641 69.08650391 142.76431641 69.62109375 141.12109375 C70.08102249 139.68498974 70.54064142 138.24878648 71 136.8125 C71.23009766 136.10802734 71.46019531 135.40355469 71.69726562 134.67773438 C77.57346888 116.19750095 75.50597946 96.45901419 67.375 79.0625 C57.4972436 60.54960474 42.30364819 49.05853442 22.69140625 42.3203125 C-4.11405883 34.22178248 -31.97672259 41.91422259 -51.4375 61.375 Z " fill="#FDFEFE" transform="translate(510.4375,261.625)"/>
<path d="M0 0 C7.93380841 6.51396019 13.15738923 13.42815368 17 23 C17.45375 24.11375 17.9075 25.2275 18.375 26.375 C20.86679108 40.82738829 18.25438382 53.02056091 10 65 C3.13435119 74.72633582 -7.06202206 79.84505063 -18.4140625 82.58203125 C-31.70796466 84.73074353 -43.46148059 81.93089895 -54.69140625 74.671875 C-64.25394506 67.74671999 -70.10879534 58.10216265 -73.4375 46.8125 C-75.23832528 34.60690642 -73.69919045 22.91620752 -66.84765625 12.4453125 C-59.11582511 2.21248735 -49.30005788 -5.49155856 -36.40234375 -7.75390625 C-23.4359343 -9.08217258 -11.02749761 -7.32347617 0 0 Z " fill="#FDFEFE" transform="translate(539,337)"/>
<path d="M0 0 C9.54199781 7.75805909 15.11536814 17.07165746 18 29 C19.43164816 44.09889393 15.67623982 55.42263537 6.328125 67.0859375 C-1.76248362 76.11007788 -13.6356576 81.09098063 -25.53515625 82.24609375 C-38.0796764 82.84173284 -49.50422814 77.98052638 -59.18359375 70.2578125 C-66.86279645 63.26088301 -72.76767321 52.35358267 -73.3359375 41.86328125 C-73.64203431 26.4827576 -69.90170931 15.45468066 -59.5 3.875 C-43.08655645 -11.87686521 -18.377979 -12.89730574 0 0 Z " fill="#FDFEFE" transform="translate(603,441)"/>
<path d="M0 0 C13.25352447 7.35581489 21.05437535 16.61195026 26.69140625 30.5703125 C28.99873974 43.15576789 27.39901527 55.44343018 20.44140625 66.3203125 C18.02259284 69.64239207 15.44050906 72.56486997 12.37890625 75.3203125 C11.45078125 76.1659375 10.52265625 77.0115625 9.56640625 77.8828125 C1.37936978 84.4946217 -9.75863772 88.02920367 -20.2734375 87.609375 C-35.4838458 85.73654602 -46.3169502 79.32426141 -55.99609375 67.4453125 C-59.2679417 62.83877304 -60.93618921 57.66880434 -62.62109375 52.3203125 C-63.11609375 50.8353125 -63.11609375 50.8353125 -63.62109375 49.3203125 C-64.79540886 35.03602054 -61.78997183 23.3895777 -52.62109375 12.3203125 C-52.1209375 11.68480469 -51.62078125 11.04929687 -51.10546875 10.39453125 C-39.27060291 -3.08406595 -16.18871833 -7.24565484 0 0 Z " fill="#FDFEFE" transform="translate(466.62109375,435.6796875)"/>
<path d="M0 0 C2.64 0 5.28 0 8 0 C6.125 4.75 6.125 4.75 5 7 C4.34 7 3.68 7 3 7 C2.01 4.69 1.02 2.38 0 0 Z " fill="#EAF8F3" transform="translate(508,441)"/>
<path d="M0 0 C0.82638376 2.89234315 1 4.88742431 1 8 C-1 9.75 -1 9.75 -3 11 C-2.69078116 9.54096742 -2.37751201 8.08279278 -2.0625 6.625 C-1.88847656 5.81289063 -1.71445312 5.00078125 -1.53515625 4.1640625 C-1 2 -1 2 0 0 Z " fill="#1388FB" transform="translate(669,502)"/>
<path d="M0 0 C0 0.66 0 1.32 0 2 C-6.625 3.125 -6.625 3.125 -10 2 C-6.49223216 0.39644899 -3.85645121 -0.22036864 0 0 Z " fill="#1789FC" transform="translate(455,190)"/>
</svg>
