<?xml version="1.0" encoding="UTF-8"?>
<svg id="Warstwa_2" xmlns="http://www.w3.org/2000/svg" viewBox="0 0 100.16 79.64">
  <defs>
    <style>
      .cls-1 {
        fill: #3cae6b;
        stroke: #3cae6c;
      }

      .cls-1, .cls-2, .cls-3, .cls-4, .cls-5, .cls-6, .cls-7, .cls-8, .cls-9, .cls-10 {
        stroke-miterlimit: 10;
      }

      .cls-1, .cls-4, .cls-5, .cls-6, .cls-7, .cls-10 {
        stroke-width: 2px;
      }

      .cls-2 {
        fill: #3bae6a;
        stroke: #3cae6b;
      }

      .cls-3 {
        stroke-linecap: round;
        stroke-width: 3px;
      }

      .cls-3, .cls-7 {
        fill: #1083c6;
        stroke: #1183c6;
      }

      .cls-4 {
        fill: #ca1619;
        stroke: #cb171b;
      }

      .cls-5 {
        fill: #f6ab1d;
        stroke: #f6ab1f;
      }

      .cls-6 {
        fill: #1d1d1b;
        stroke: #1d1d1b;
      }

      .cls-8 {
        fill: #c91517;
        stroke: #ca1619;
      }

      .cls-9 {
        fill: #f4e600;
        stroke: #f2e610;
      }

      .cls-10 {
        fill: #f2e610;
        stroke: #f0e517;
      }
    </style>
  </defs>
  <g id="Warstwa_1-2" data-name="Warstwa_1">
    <path class="cls-3" d="M1.5,24.47c.76.69,1.86,1.27,3.3,1.73s2.76.69,3.98.69c3.96,0,5.94-1.44,5.94-4.32,0-.81-.21-1.53-.62-2.16s-.96-1.18-1.66-1.64-2.07-1.22-4.12-2.28c-2.95-1.51-4.82-2.83-5.61-3.96s-1.18-2.4-1.18-3.81c0-2.19.89-3.94,2.67-5.26s4.02-1.97,6.71-1.97,4.65.32,5.78.97v3.46c-1.59-1.1-3.65-1.65-6.17-1.65-1.72,0-3.13.37-4.22,1.1s-1.63,1.76-1.63,3.08c0,.82.19,1.53.57,2.14s.9,1.13,1.56,1.57,1.93,1.14,3.83,2.09c2.67,1.32,4.54,2.62,5.61,3.88s1.6,2.67,1.6,4.23c0,2.32-.84,4.11-2.53,5.38s-4.05,1.9-7.08,1.9c-.93,0-2.13-.15-3.61-.46s-2.52-.67-3.12-1.11v-3.6Z"/>
    <path class="cls-3" d="M25.86,26.34v11.79h-2.94V9.74h2.94v3.45h.09c1.54-2.6,3.78-3.9,6.73-3.9,2.47,0,4.42.86,5.85,2.59s2.14,4.07,2.14,7.02c0,3.23-.8,5.83-2.4,7.8s-3.76,2.94-6.5,2.94c-2.53,0-4.48-1.1-5.84-3.3h-.09ZM25.86,21.31c0,1.63.54,3.01,1.63,4.14s2.43,1.7,4.03,1.7c1.91,0,3.41-.74,4.51-2.21s1.64-3.52,1.64-6.12c0-2.19-.52-3.91-1.55-5.16s-2.4-1.87-4.11-1.87-3.25.63-4.41,1.89-1.74,2.87-1.74,4.83v2.81Z"/>
    <path class="cls-3" d="M44.37,19.71c0-3.23.88-5.78,2.65-7.64s4.16-2.79,7.2-2.79c2.86,0,5.1.9,6.72,2.69s2.43,4.27,2.43,7.44-.88,5.54-2.64,7.42-4.08,2.81-6.98,2.81-5.07-.9-6.79-2.71-2.59-4.21-2.59-7.22ZM47.36,19.59c0,2.3.6,4.13,1.8,5.5s2.8,2.06,4.81,2.06,3.62-.67,4.74-2,1.68-3.21,1.68-5.62-.55-4.38-1.66-5.72-2.69-2.01-4.75-2.01-3.62.69-4.82,2.08-1.79,3.3-1.79,5.72Z"/>
    <path class="cls-3" d="M78.39,12.75c-.54-.41-1.32-.62-2.34-.62-1.37,0-2.5.65-3.38,1.96s-1.33,3.02-1.33,5.14v9.95h-2.94V9.74h2.94v4.03h.09c.45-1.38,1.12-2.46,2.04-3.22s1.92-1.14,3.02-1.14c.83,0,1.46.09,1.9.26v3.08Z"/>
    <path class="cls-3" d="M93.76,28.99c-.71.41-1.66.62-2.83.62-3.34,0-5.01-1.88-5.01-5.64v-11.69h-3.38v-2.53h3.38v-4.78l2.92-.95v5.73h4.92v2.53h-4.92v11.16c0,1.32.22,2.27.67,2.83s1.19.84,2.23.84c.81,0,1.48-.22,2.02-.65v2.53Z"/>
    <path class="cls-1" d="M15.49,78.19H1.5v-27.23h2.99v24.49h11v2.74Z"/>
    <path class="cls-6" d="M20.52,78v-19.44h2.92v19.44h-2.92Z"/>
    <path class="cls-4" d="M44.58,78.19h-2.94v-11.11c0-4.2-1.54-6.29-4.61-6.29-1.61,0-2.92.6-3.96,1.8s-1.55,2.7-1.55,4.51v11.09h-2.94v-19.44h2.94v3.25h.09c1.45-2.47,3.58-3.71,6.38-3.71,2.13,0,3.76.69,4.89,2.06s1.69,3.36,1.69,5.96v11.88Z"/>
    <path class="cls-10" d="M66.43,78.19h-4.17l-8.74-9.32h-.09v9.32h-2.94v-28.78h2.94v18.25h.09l8.3-8.91h3.88l-9.14,9.4,9.86,10.04Z"/>
    <path class="cls-7" d="M84.4,69.19h-13.78c.06,2.24.65,3.96,1.78,5.15s2.67,1.79,4.62,1.79c2.19,0,4.21-.73,6.06-2.2v2.81c-1.7,1.27-3.95,1.9-6.75,1.9s-4.84-.88-6.41-2.65-2.35-4.26-2.35-7.47c0-2.95.85-5.4,2.54-7.33s3.81-2.9,6.35-2.9,4.44.82,5.84,2.46,2.09,3.93,2.09,6.86v1.58ZM81.38,66.6c-.01-1.83-.45-3.25-1.32-4.26s-2.08-1.52-3.64-1.52c-1.42,0-2.66.51-3.74,1.53s-1.75,2.44-2.03,4.25h10.72Z"/>
    <path class="cls-5" d="M99.16,61.75c-.54-.41-1.32-.62-2.34-.62-1.37,0-2.5.65-3.38,1.96s-1.33,3.02-1.33,5.14v9.95h-2.94v-19.44h2.94v4.03h.09c.45-1.38,1.12-2.46,2.04-3.22s1.92-1.14,3.02-1.14c.83,0,1.46.09,1.9.26v3.08Z"/>
    <path class="cls-2" d="M23.69,47.54c-2.27,0-4.11,1.84-4.11,4.11s1.84,4.11,4.11,4.11,4.11-1.84,4.11-4.11-1.84-4.11-4.11-4.11ZM23.69,54.69c-1.68,0-3.04-1.36-3.04-3.04s1.36-3.04,3.04-3.04,3.04,1.36,3.04,3.04-1.36,3.04-3.04,3.04Z"/>
    <path class="cls-8" d="M21.94,43.52c-2.27,0-4.11,1.84-4.11,4.11s1.84,4.11,4.11,4.11,4.11-1.84,4.11-4.11-1.84-4.11-4.11-4.11ZM21.94,50.67c-1.68,0-3.04-1.36-3.04-3.04s1.36-3.04,3.04-3.04,3.04,1.36,3.04,3.04-1.36,3.04-3.04,3.04Z"/>
    <path class="cls-9" d="M20.26,47.54c-2.27,0-4.11,1.84-4.11,4.11s1.84,4.11,4.11,4.11,4.11-1.84,4.11-4.11-1.84-4.11-4.11-4.11ZM20.26,54.69c-1.68,0-3.04-1.36-3.04-3.04s1.36-3.04,3.04-3.04,3.04,1.36,3.04,3.04-1.36,3.04-3.04,3.04Z"/>
    <path class="cls-8" d="M24.48,44.89c-.06-.12-.09-.25-.09-.39,0-.04.02-.08.03-.12-.69-.53-1.55-.86-2.49-.86-2.27,0-4.11,1.84-4.11,4.11s1.73,3.97,3.89,4.08c-.03-.2-.06-.41-.06-.62,0-.15.03-.3.05-.45-1.58-.11-2.83-1.41-2.83-3.02s1.36-3.04,3.04-3.04c.98,0,1.84.47,2.4,1.19-.03-.16-.02-.32.02-.47.03-.13.09-.25.18-.35-.01-.03-.04-.04-.05-.07Z"/>
    <path class="cls-2" d="M27.78,51.56s-.07-.06-.11-.08c-.02-.02-.02-.05-.04-.07-.26.11-.6.11-.92.06,0,.06.02.12.02.18,0,1.68-1.36,3.04-3.04,3.04-1.17,0-2.18-.67-2.68-1.64,0,0,0,0-.01,0-.17,0-.34-.02-.51-.05-.08-.01-.16-.03-.24-.05-.07-.02-.14-.03-.21-.05-.05.07-.1.13-.16.18.58,1.56,2.06,2.68,3.82,2.68,2.27,0,4.11-1.84,4.11-4.11,0-.03,0-.06,0-.09Z"/>
  </g>
</svg>