<?xml version="1.0" encoding="UTF-8"?>
<svg id="Warstwa_2" xmlns="http://www.w3.org/2000/svg" viewBox="0 0 154.6 209.02">
  <defs>
    <style>
      .cls-1 {
        fill: #fff;
        stroke: #fff;
      }

      .cls-1, .cls-2, .cls-3, .cls-4, .cls-5 {
        stroke-miterlimit: 10;
      }

      .cls-2 {
        fill: #0084cc;
        stroke: #1083c6;
      }

      .cls-3 {
        fill: #3bae6a;
        stroke: #3cae6b;
      }

      .cls-4 {
        fill: #c91517;
        stroke: #ca1619;
      }

      .cls-5 {
        fill: #f4e600;
        stroke: #f2e610;
      }
    </style>
  </defs>
  <g id="Warstwa_1-2" data-name="Warstwa_1">
    <path class="cls-2" d="M154.1,80.16c0,44-76.8,128.12-76.8,128.12,0,0-76.8-84.12-76.8-128.12S34.89.5,77.3.5s76.8,35.67,76.8,79.66Z"/>
    <circle class="cls-1" cx="77.47" cy="63.57" r="32.32"/>
    <circle class="cls-1" cx="58.01" cy="93.07" r="32.32"/>
    <circle class="cls-1" cx="96.93" cy="93.07" r="32.32"/>
    <circle class="cls-1" cx="57.08" cy="92.17" r="16.05"/>
    <circle class="cls-1" cx="96.44" cy="92.17" r="16.05"/>
    <path class="cls-3" d="M96.39,64.59c-15.6,0-28.24,12.64-28.24,28.24s12.64,28.24,28.24,28.24,28.24-12.64,28.24-28.24-12.64-28.24-28.24-28.24ZM96.39,113.75c-11.55,0-20.92-9.37-20.92-20.92s9.37-20.92,20.92-20.92,20.92,9.37,20.92,20.92-9.37,20.92-20.92,20.92Z"/>
    <path class="cls-4" d="M77.47,36.35c-15.6,0-28.24,12.64-28.24,28.24s12.64,28.24,28.24,28.24,28.24-12.64,28.24-28.24-12.64-28.24-28.24-28.24ZM77.47,85.51c-11.55,0-20.92-9.37-20.92-20.92s9.37-20.92,20.92-20.92,20.92,9.37,20.92,20.92-9.37,20.92-20.92,20.92Z"/>
    <path class="cls-5" d="M59.08,64.59c-15.6,0-28.24,12.64-28.24,28.24s12.64,28.24,28.24,28.24,28.24-12.64,28.24-28.24-12.64-28.24-28.24-28.24ZM59.08,113.75c-11.55,0-20.92-9.37-20.92-20.92s9.37-20.92,20.92-20.92,20.92,9.37,20.92,20.92-9.37,20.92-20.92,20.92Z"/>
    <path class="cls-4" d="M78.07,90.72c-.14-.7-.11-1.45.14-2.22,0,0,0-.01,0-.02-.67-.84-1.04-1.9-1.11-2.98-11.38-.2-20.55-9.47-20.55-20.9,0-5.51,2.15-10.51,5.64-14.25-1.47-.67-2.81-1.56-3.91-2.67-.68-.68-1.21-1.4-1.65-2.13-4.59,5.02-7.4,11.71-7.4,19.05,0,15.6,12.64,28.24,28.24,28.24.17,0,.34-.01.5-.01-.1-.7-.07-1.42.09-2.1Z"/>
    <path class="cls-3" d="M117.35,92.73s0,.07,0,.11c0,11.55-9.37,20.92-20.92,20.92-10.66,0-19.43-7.97-20.74-18.28-.93.5-1.97.8-3.02.86-1.77.1-3.33-.66-4.43-1.87.85,14.84,13.14,26.61,28.19,26.61s28.24-12.64,28.24-28.24c0-.38-.01-.76-.03-1.14-1.57,1.8-4.18,2.54-7.3,1.03Z"/>
  </g>
</svg>